<mxfile host="app.diagrams.net" agent="Mozilla/5.0 (Windows NT 10.0; Win64; x64; rv:144.0) Gecko/20100101 Firefox/144.0" version="28.2.8">
  <diagram name="Page-1" id="reO1sDrfc8gLjoZBzr0u">
    <mxGraphModel dx="434" dy="223" grid="1" gridSize="10" guides="1" tooltips="1" connect="1" arrows="1" fold="1" page="1" pageScale="1" pageWidth="850" pageHeight="1100" math="0" shadow="0">
      <root>
        <mxCell id="0" />
        <mxCell id="1" parent="0" />
        <mxCell id="fb-j_Q9x-hQx4NVGqNk3-2" value="Student Management system" style="ellipse;whiteSpace=wrap;html=1;aspect=fixed;" vertex="1" parent="1">
          <mxGeometry x="360" y="260" width="130" height="130" as="geometry" />
        </mxCell>
        <mxCell id="fb-j_Q9x-hQx4NVGqNk3-3" value="Student" style="whiteSpace=wrap;html=1;aspect=fixed;" vertex="1" parent="1">
          <mxGeometry x="90" y="270" width="110" height="110" as="geometry" />
        </mxCell>
        <mxCell id="fb-j_Q9x-hQx4NVGqNk3-4" value="Administrator" style="whiteSpace=wrap;html=1;aspect=fixed;" vertex="1" parent="1">
          <mxGeometry x="640" y="270" width="110" height="110" as="geometry" />
        </mxCell>
        <mxCell id="fb-j_Q9x-hQx4NVGqNk3-6" value="" style="endArrow=classic;html=1;rounded=0;entryX=1;entryY=0.5;entryDx=0;entryDy=0;exitX=0;exitY=0.5;exitDx=0;exitDy=0;" edge="1" parent="1" source="fb-j_Q9x-hQx4NVGqNk3-2" target="fb-j_Q9x-hQx4NVGqNk3-3">
          <mxGeometry width="50" height="50" relative="1" as="geometry">
            <mxPoint x="270" y="340" as="sourcePoint" />
            <mxPoint x="320" y="290" as="targetPoint" />
          </mxGeometry>
        </mxCell>
        <mxCell id="fb-j_Q9x-hQx4NVGqNk3-8" value="Finanical summary" style="text;html=1;whiteSpace=wrap;strokeColor=none;fillColor=none;align=center;verticalAlign=middle;rounded=0;" vertex="1" parent="1">
          <mxGeometry x="230" y="300" width="110" height="30" as="geometry" />
        </mxCell>
        <mxCell id="fb-j_Q9x-hQx4NVGqNk3-9" value="Pay fee" style="text;html=1;whiteSpace=wrap;strokeColor=none;fillColor=none;align=center;verticalAlign=middle;rounded=0;" vertex="1" parent="1">
          <mxGeometry x="230" y="325" width="110" height="30" as="geometry" />
        </mxCell>
        <mxCell id="fb-j_Q9x-hQx4NVGqNk3-11" style="edgeStyle=orthogonalEdgeStyle;rounded=0;orthogonalLoop=1;jettySize=auto;html=1;exitX=1;exitY=0.75;exitDx=0;exitDy=0;entryX=0.039;entryY=0.71;entryDx=0;entryDy=0;entryPerimeter=0;" edge="1" parent="1">
          <mxGeometry relative="1" as="geometry">
            <mxPoint x="200" y="347.5" as="sourcePoint" />
            <mxPoint x="365.07000000000005" y="347.29999999999995" as="targetPoint" />
          </mxGeometry>
        </mxCell>
        <mxCell id="fb-j_Q9x-hQx4NVGqNk3-12" value="" style="endArrow=classic;html=1;rounded=0;exitX=0;exitY=0.5;exitDx=0;exitDy=0;" edge="1" parent="1" source="fb-j_Q9x-hQx4NVGqNk3-4" target="fb-j_Q9x-hQx4NVGqNk3-2">
          <mxGeometry width="50" height="50" relative="1" as="geometry">
            <mxPoint x="530" y="340" as="sourcePoint" />
            <mxPoint x="580" y="290" as="targetPoint" />
          </mxGeometry>
        </mxCell>
        <mxCell id="fb-j_Q9x-hQx4NVGqNk3-20" value="View notifications" style="text;html=1;whiteSpace=wrap;strokeColor=none;fillColor=none;align=center;verticalAlign=middle;rounded=0;" vertex="1" parent="1">
          <mxGeometry x="230" y="270" width="110" height="20" as="geometry" />
        </mxCell>
        <mxCell id="fb-j_Q9x-hQx4NVGqNk3-21" value="" style="endArrow=classic;html=1;rounded=0;entryX=1;entryY=0.5;entryDx=0;entryDy=0;exitX=0.083;exitY=0.232;exitDx=0;exitDy=0;exitPerimeter=0;" edge="1" parent="1" source="fb-j_Q9x-hQx4NVGqNk3-2">
          <mxGeometry width="50" height="50" relative="1" as="geometry">
            <mxPoint x="360" y="290" as="sourcePoint" />
            <mxPoint x="200" y="290" as="targetPoint" />
          </mxGeometry>
        </mxCell>
        <mxCell id="fb-j_Q9x-hQx4NVGqNk3-22" value="Post announcements" style="text;html=1;whiteSpace=wrap;strokeColor=none;fillColor=none;align=center;verticalAlign=middle;rounded=0;" vertex="1" parent="1">
          <mxGeometry x="500" y="305" width="140" height="20" as="geometry" />
        </mxCell>
        <mxCell id="fb-j_Q9x-hQx4NVGqNk3-23" value="Update student&#39;s information" style="text;html=1;whiteSpace=wrap;strokeColor=none;fillColor=none;align=center;verticalAlign=middle;rounded=0;" vertex="1" parent="1">
          <mxGeometry x="189.83999999999997" y="350" width="190.33" height="30" as="geometry" />
        </mxCell>
        <mxCell id="fb-j_Q9x-hQx4NVGqNk3-24" style="edgeStyle=orthogonalEdgeStyle;rounded=0;orthogonalLoop=1;jettySize=auto;html=1;exitX=1.003;exitY=0.915;exitDx=0;exitDy=0;entryX=0;entryY=1;entryDx=0;entryDy=0;exitPerimeter=0;" edge="1" parent="1">
          <mxGeometry relative="1" as="geometry">
            <mxPoint x="200.00000000000003" y="370.65000000000003" as="sourcePoint" />
            <mxPoint x="378.70805922287406" y="370.96194077712585" as="targetPoint" />
          </mxGeometry>
        </mxCell>
        <mxCell id="fb-j_Q9x-hQx4NVGqNk3-28" value="Register new student" style="text;html=1;whiteSpace=wrap;strokeColor=none;fillColor=none;align=center;verticalAlign=middle;rounded=0;" vertex="1" parent="1">
          <mxGeometry x="500" y="330" width="140" height="20" as="geometry" />
        </mxCell>
        <mxCell id="fb-j_Q9x-hQx4NVGqNk3-29" value="" style="endArrow=classic;html=1;rounded=0;exitX=0;exitY=0.5;exitDx=0;exitDy=0;entryX=0.965;entryY=0.693;entryDx=0;entryDy=0;entryPerimeter=0;" edge="1" parent="1" target="fb-j_Q9x-hQx4NVGqNk3-2">
          <mxGeometry width="50" height="50" relative="1" as="geometry">
            <mxPoint x="640" y="350" as="sourcePoint" />
            <mxPoint x="490" y="350" as="targetPoint" />
          </mxGeometry>
        </mxCell>
      </root>
    </mxGraphModel>
  </diagram>
</mxfile>
